<svg id="SvgjsSvg1105" width="288" height="288" xmlns="http://www.w3.org/2000/svg" version="1.1" xmlns:xlink="http://www.w3.org/1999/xlink" xmlns:svgjs="http://svgjs.com/svgjs"><defs id="SvgjsDefs1106"></defs><g id="SvgjsG1107"><svg xmlns="http://www.w3.org/2000/svg" viewBox="0 0 32 32" width="288" height="288"><path fill="#e9eced" fill-rule="evenodd" stroke="#9aa6ac" stroke-linecap="round" stroke-linejoin="round" d="M26.496 7.504v21.5c0 .83-.669 1.5-1.5 1.5h-18c-.83 0-1.5-.67-1.5-1.5v-26c0-.831.67-1.5 1.5-1.5h13.5z" class="svgShape colore9eded-0 svgStroke colorStrokef8b84e-0 selectable"></path><path fill="#9aa6ac" d="M5 24.004v5c0 1.108.892 2 2 2h18c1.108 0 2-.892 2-2v-5H5z" class="svgShape colorf8b84e-1 selectable"></path><path fill="#9aa6ac" stroke="#9aa6ac" stroke-linecap="round" stroke-linejoin="round" d="M26.496 7.504h-4.5c-.83 0-1.5-.67-1.5-1.5v-4.5" class="svgShape colorf8b84e-2 svgStroke colorStrokef8b84e-2 selectable"></path><path fill="#9aa6ac" d="M22.572 9.004c-.822 0-1.5.677-1.5 1.5 0 .602.364 1.123.881 1.361a4.03 4.03 0 0 1-3.6 3.106 2.507 2.507 0 0 0-2.439-1.967 2.508 2.508 0 0 0-2.45 2H10v-.5a.5.5 0 0 0-.5-.5h-2a.5.5 0 0 0-.5.5v2a.5.5 0 0 0 .5.5h2a.5.5 0 0 0 .5-.5v-.5h1.135a5.003 5.003 0 0 0-2.004 3.05A1.507 1.507 0 0 0 8 20.505c0 .822.677 1.5 1.5 1.5s1.5-.678 1.5-1.5c0-.599-.36-1.118-.873-1.358a4.028 4.028 0 0 1 3.37-3.042 2.505 2.505 0 0 0 2.417 1.9c1.203 0 2.21-.864 2.443-2H22v.5a.5.5 0 0 0 .5.5h2a.5.5 0 0 0 .5-.5v-2a.5.5 0 0 0-.5-.5h-2a.5.5 0 0 0-.5.5v.5h-1.025a4.99 4.99 0 0 0 1.978-3.057 1.504 1.504 0 0 0 1.12-1.443c0-.823-.678-1.5-1.5-1.5zm0 1c.282 0 .5.218.5.5 0 .282-.218.5-.5.5a.493.493 0 0 1-.5-.5c0-.282.218-.5.5-.5zm-6.658 4c.834 0 1.5.666 1.5 1.5s-.666 1.5-1.5 1.5-1.5-.666-1.5-1.5.666-1.5 1.5-1.5zm-7.914 1h1v1H8v-1zm15 0h1v1h-1v-1zm-13.5 5c.282 0 .5.218.5.5 0 .282-.218.5-.5.5a.493.493 0 0 1-.5-.5c0-.282.218-.5.5-.5z" color="#000" font-family="sans-serif" font-weight="400" overflow="visible" style="line-height:normal;text-indent:0;text-align:start;text-decoration-line:none;text-decoration-style:solid;text-decoration-color:#000;text-transform:none;block-progression:tb;isolation:auto;mix-blend-mode:normal" class="svgShape colorf8b84e-3 selectable"></path><path fill="#e9eced" fill-rule="evenodd" d="M10.496 24.998a.5.5 0 0 0-.451.277l-2 4a.5.5 0 1 0 .894.446l.358-.717h2.39l.358.717a.5.5 0 1 0 .894-.446l-2-4a.5.5 0 0 0-.443-.277zm3.979.004a.5.5 0 0 0-.493.506v3.99a.5.5 0 1 0 1 0v-3.99a.5.5 0 0 0-.507-.506zm-3.983 1.613.695 1.389h-1.39l.695-1.389z" color="#000" font-family="sans-serif" font-weight="400" overflow="visible" style="line-height:normal;text-indent:0;text-align:start;text-decoration-line:none;text-decoration-style:solid;text-decoration-color:#000;text-transform:none;block-progression:tb;isolation:auto;mix-blend-mode:normal" class="svgShape colore9eded-4 selectable"></path></svg></g></svg>