<svg id="SvgjsSvg1135" width="288" height="288" xmlns="http://www.w3.org/2000/svg" version="1.1" xmlns:xlink="http://www.w3.org/1999/xlink" xmlns:svgjs="http://svgjs.com/svgjs"><defs id="SvgjsDefs1136"></defs><g id="SvgjsG1137"><svg xmlns="http://www.w3.org/2000/svg" viewBox="0 0 48 48" width="288" height="288"><g transform="translate(-8 -1008.495)"><circle cx="32.001" cy="1032.495" r="24" fill="#57646a" class="svgShape color3a6c87-1 selectable"></circle><path fill="#ffffff" style="line-height:normal;text-indent:0;text-align:start;text-decoration-line:none;text-decoration-style:solid;text-decoration-color:#000;text-transform:none;block-progression:tb;isolation:auto;mix-blend-mode:normal" d="M38 1018.808h.5c.84 0 1.5.66 1.5 1.5V1037.43c-.426-.339-.915-.623-1.5-.623H38zm-20.5 4H37v15h1.5c.84 0 1.5.66 1.5 1.5s-.66 1.5-1.5 1.5H17.502c-.565 0-1.08.196-1.5.514v-17.014c0-.84.66-1.5 1.5-1.5zm25.5 1h4v17h-4v-1h2v-1h-2v-1h1v-1h-1v-1h2v-1h-2v-1h1v-1h-1v-1h2v-1h-2v-1h1v-1h-1v-1h2v-1h-2v-1h1v-1h-1zm-23.5 1a.5.5 0 0 0-.5.5v13a.5.5 0 0 0 .5.5h15a.5.5 0 0 0 .5-.5v-13a.5.5 0 0 0-.5-.5H24v1h2v3h1v-3h7v6h-3v-4h-1v4h-2v1h6v5h-1v-3.5a.5.5 0 0 0-.5-.5h-4a.5.5 0 0 0-.5.5v3.5h-1v-6.951h-1v6.95h-6v-4h4v-1h-4v-7h2v-1zm9.5 10h3v3h-3zm-11.5 7h.501v3h-.5c-.84 0-1.5-.66-1.5-1.5s.66-1.5 1.5-1.5zm18.83 1.694c.417 0 .72.294.72.62l.003.748c0 .33-.287.623-.715.625h-.518l-.01-1.993zm-1.284-.044.002.61-7.999-.02-.002-.576zm-8.996 0 .002.985.002 1.015-1.305-.984zm1.003 1.39 8.001.02.002.576v.03l-8-.001z" color="#000" font-family="sans-serif" font-weight="400" overflow="visible" class="svgShape colorffffff-2 selectable"></path></g></svg></g></svg>