<svg id="SvgjsSvg1178" width="288" height="288" xmlns="http://www.w3.org/2000/svg" version="1.1" xmlns:xlink="http://www.w3.org/1999/xlink" xmlns:svgjs="http://svgjs.com/svgjs"><defs id="SvgjsDefs1179"></defs><g id="SvgjsG1180"><svg xmlns="http://www.w3.org/2000/svg" xmlns:xlink="http://www.w3.org/1999/xlink" viewBox="0 0 64 64" width="288" height="288"><defs><linearGradient id="b" x1="1056.035" x2="1031.176" y1="544.13" y2="517.701" gradientTransform="translate(-1581.737 211.343) scale(1.53785)" gradientUnits="userSpaceOnUse" xlink:href="#a"></linearGradient><linearGradient id="a"><stop offset="0" stop-color="#515d63" class="svgShape stopColor5a5a5a-3"></stop><stop offset="1" stop-color="#697981" class="svgShape stopColor656e85-4"></stop></linearGradient></defs><g transform="translate(0 -1004.362)"><rect width="48" height="48" y="1004.362" fill="url(#b)" rx="10.144" ry="10.144" class="svgShape colorgradient-6 selectable"></rect><path style="line-height:normal;-inkscape-font-specification:Sans;text-indent:0;text-align:start;text-decoration-line:none;text-transform:none;block-progression:tb;marker:none" fill="#ffffff" d="M22.999 1019.698c-.55.062-1.024.402-1.47.782-.362-.191-.74-.37-1.124-.375-1.18-.02-2.038.88-2.313 2-.114-.01-.211-.037-.343-.031-1.235.048-2.102 1.068-2.25 2.28-.961.238-1.777.903-1.97 1.907-.258 1.352.65 2.679 2 2.938.367 1.037 1.23 1.834 2.376 1.75.56-.042 1.01-.35 1.406-.688.22.607.59 1.145 1.156 1.5 1.112.696 2.42.39 3.375-.406.14.398.348 1.083.782 2.219.272.713.577 1.434.843 2.03.133.299.256.564.375.782.12.218.19.368.375.531.41.362.946.526 1.438.407.492-.12.898-.623.875-1.22-.027-.682-.45-1.067-.625-1.437a1.129 1.129 0 0 1-.125-.625c.305.286.675.519 1.094.625 1.205.307 2.353-.392 2.843-1.5.39.031.775.058 1.188-.125.563-.25 1.13-.67 1.406-1.343.428-1.048-.067-2.144-.937-2.876.55-.432 1.03-1 1.125-1.78.146-1.217-.728-2.206-1.938-2.563v-.031s-.006.034 0-.062c.064-.973-.647-1.743-1.594-2-.071-.1-.102-.257-.25-.5-.438-.722-1.26-.915-1.875-.75-.456.122-.598.29-.718.406-.717-.65-1.639-.812-2.532-.437-.167-.305-.32-.622-.593-.844a2.684 2.684 0 0 0-2-.563zm.125.969c.438-.05.883.078 1.25.375.243.198.43.464.53.75a.5.5 0 0 0 .75.219c.675-.482 1.61-.307 2.095.375a.5.5 0 0 0 .656.156c.39-.222.4-.392.687-.469.269-.072.52-.036.75.344.055.091.125.301.313.563a.5.5 0 0 0 .375.187c.673.035 1.07.527 1.031 1.125-.008.122-.044.44.125.719a.5.5 0 0 0 .375.218c.98.117 1.537.89 1.438 1.72-.063.52-.407.984-.844 1.28-.015.01-.048-.01-.063 0-.917.445-1.772.247-2.187-.437a.5.5 0 0 0-.563-.25.5.5 0 0 0-.312.75c.613 1.01 1.86 1.386 3.031 1.031.8.453 1.112 1.235.813 1.969-.143.35-.484.67-.875.844-.392.173-.86.162-.875.156a.505.505 0 0 0-.407-.031c-.564.215-1.071.187-1.468 0a1.353 1.353 0 0 1-.782-1 1.882 1.882 0 0 1 0-.781.5.5 0 0 0-.593-.625.5.5 0 0 0-.375.406c-.085.403-.082.8 0 1.188.164.784.647 1.405 1.312 1.718.35.165.746.252 1.156.25-.36.302-.853.406-1.343.282a1.453 1.453 0 0 1-1.032-.907.5.5 0 0 0-.906-.062c-.55.983-.453 1.813-.187 2.375.265.562.525.883.53 1.032.01.235-.025.194-.124.218-.1.024-.338-.017-.531-.187.034.03-.059-.071-.157-.25-.098-.18-.217-.436-.343-.719a41.893 41.893 0 0 1-.813-2c-.538-1.408-1-2.75-1-2.75a.5.5 0 0 0-.875-.125c-.59.863-1.793 1.154-2.687.594-.66-.413-.998-1.162-.875-1.969a2.526 2.526 0 0 0 1.468-.281c1.218-.64 1.703-2.158 1.063-3.375a.5.5 0 0 0-.563-.281.5.5 0 0 0-.312.75c.388.739.083 1.611-.656 2a1.532 1.532 0 0 1-1.063.156.504.504 0 0 0-.031-.031.504.504 0 0 0-.094-.031.504.504 0 0 0-.031 0 .504.504 0 0 0-.063-.031.504.504 0 0 0-.031 0 .504.504 0 0 0-.156 0 .504.504 0 0 0-.156.03.5.5 0 0 0-.125.095.504.504 0 0 0-.032.03.5.5 0 0 0-.031.063.5.5 0 0 0-.062.094.504.504 0 0 0 0 .03.5.5 0 0 0 0 .376c-.02.69-.62 1.348-1.407 1.406a1.472 1.472 0 0 1-1.593-1.375c-.031-.415.092-.85.375-1.156a.5.5 0 1 0-.72-.656c-.33.357-.386.841-.468 1.312-.63-.275-1.041-.92-.906-1.625.129-.672.704-1.17 1.406-1.25a.5.5 0 0 0 .438-.5c-.037-.893.572-1.593 1.406-1.625.145-.01.358.015.562.031a.5.5 0 0 0 .532-.469c.012-.878.695-1.545 1.53-1.531.291 0 .523.099.845.313a.5.5 0 0 0 .656-.094 1.95 1.95 0 0 1 1.219-.657zm4.437 2.813a2.947 2.947 0 0 0-.969.094c-.365.097-.69.287-.968.53-.023-.058-.037-.128-.063-.187a.5.5 0 0 0-.594-.312.5.5 0 0 0-.343.719c.325.73.248 1.422-.157 1.874a.5.5 0 1 0 .75.657c.364-.407.548-.906.594-1.438a.5.5 0 0 0 .188-.25c.393-.697 1.224-.915 2.156-.5a.51.51 0 1 0 .406-.937 2.96 2.96 0 0 0-1-.25zm2.125 2.125a.5.5 0 0 0-.312.28c-.328.73-.925 1.157-1.532 1.157a.5.5 0 1 0 0 1c1.048 0 1.978-.691 2.438-1.719a.5.5 0 0 0-.594-.719z" color="#000" font-family="Sans" font-weight="400" overflow="visible" class="svgShape colorffffff-7 selectable"></path></g></svg></g></svg>