<svg xmlns="http://www.w3.org/2000/svg" viewBox="0 0 512 512" id="personal-data-security">
  <path fill="#8ac9fe" d="M444.62 504.5H67.38c-33.07 0-59.88-27.57-59.88-61.57V68.13c0-34 26.81-61.57 59.88-61.57h116.34a29.54 29.54 0 0 1 21.17 9l42.34 43.54a29.55 29.55 0 0 0 21.17 9h176.22c33.07 0 59.88 27.56 59.88 61.57v313.26c0 34-26.81 61.57-59.88 61.57Z"></path>
  <path fill="#60b7ff" d="M187.23 9.11a29.53 29.53 0 0 0 20.12 9l-2.46-2.53a29.62 29.62 0 0 0-20.12-9Z"></path>
  <rect width="497" height="362.13" x="7.5" y="142.37" fill="#26a6fe" rx="60.72"></rect>
  <path fill="#0593fc" d="M446.18 142.43a60.39 60.39 0 0 1 8.32 30.66c0 166.46-134.95 301.41-301.41 301.41H18.22c-.81 0-1.61 0-2.4-.06a60.66 60.66 0 0 0 52.4 30.06h375.56a60.73 60.73 0 0 0 60.72-60.72V203.09a60.71 60.71 0 0 0-58.32-60.66Z"></path>
  <path fill="#fff" d="M440.74 407.6h-38.61a30.59 30.59 0 0 1-30.55-30.55A15.58 15.58 0 0 0 356 361.49h-22a7.5 7.5 0 1 1 0-15h22a30.59 30.59 0 0 1 30.55 30.56 15.57 15.57 0 0 0 15.55 15.55h38.61a7.5 7.5 0 0 1 0 15Z"></path>
  <path fill="#deecf1" d="M448.24 400.1a7.5 7.5 0 0 0-7.5-7.5h-38.61a15.57 15.57 0 0 1-15.55-15.55 30.43 30.43 0 0 0-2-10.92q-6.17 7.38-12.78 14.37a30.59 30.59 0 0 0 30.35 27.1h38.61a7.5 7.5 0 0 0 7.48-7.5Z"></path>
  <circle cx="440.74" cy="400.64" r="18.76" fill="#97d729"></circle>
  <path fill="#fff" d="M356 300.37h-22a7.5 7.5 0 0 1 0-15h22a15.57 15.57 0 0 0 15.55-15.55 30.59 30.59 0 0 1 30.55-30.55h38.61a7.5 7.5 0 0 1 0 15h-38.58a15.57 15.57 0 0 0-15.55 15.55A30.59 30.59 0 0 1 356 300.37zM109.87 407.6H71.26a7.5 7.5 0 0 1 0-15h38.61a15.57 15.57 0 0 0 15.55-15.55A30.59 30.59 0 0 1 156 346.49h22a7.5 7.5 0 1 1 0 15h-22a15.58 15.58 0 0 0-15.55 15.56 30.59 30.59 0 0 1-30.58 30.55z"></path>
  <circle cx="71.26" cy="400.64" r="18.76" fill="#a2e62e"></circle>
  <path fill="#fff" d="M178 300.37h-22a30.59 30.59 0 0 1-30.55-30.55 15.57 15.57 0 0 0-15.55-15.55H71.26a7.5 7.5 0 0 1 0-15h38.61a30.59 30.59 0 0 1 30.55 30.55A15.57 15.57 0 0 0 156 285.37h22a7.5 7.5 0 0 1 0 15Z"></path>
  <circle cx="71.26" cy="246.23" r="18.76" fill="#a2e62e"></circle>
  <path fill="#fff" d="M422 330.4h-84.74a7.5 7.5 0 0 1 0-15H422a7.5 7.5 0 0 1 0 15Z"></path>
  <path fill="#deecf1" d="M422 330.4a7.5 7.5 0 0 0 0-15h-3.13q-4.09 7.64-8.61 15Z"></path>
  <circle cx="440.74" cy="323.43" r="18.76" fill="#97d729"></circle>
  <path fill="#fff" d="M174.74 330.4H90a7.5 7.5 0 1 1 0-15h84.71a7.5 7.5 0 0 1 0 15Z"></path>
  <circle cx="71.26" cy="323.43" r="18.76" fill="#a2e62e"></circle>
  <circle cx="440.74" cy="246.23" r="18.76" fill="#a2e62e"></circle>
  <path fill="#97d729" d="M449.21 229.5a298.88 298.88 0 0 1-9 35.47h.52a18.76 18.76 0 0 0 8.47-35.5Z"></path>
  <circle cx="256" cy="323.43" r="91.82" fill="#d8ecfe"></circle>
  <path fill="#c4e2ff" d="M289 237.73a91.83 91.83 0 0 1-106 141.41 91.82 91.82 0 1 0 106-141.41Z"></path>
  <circle cx="256" cy="299.88" r="30.81" fill="#ffcebf"></circle>
  <path fill="#a2e62e" d="M256 415.25a91.43 91.43 0 0 0 59-21.5l-2.43-20.13a21.5 21.5 0 0 0-21.34-18.92h-70.5a21.5 21.5 0 0 0-21.34 18.92L197 393.75a91.43 91.43 0 0 0 59 21.5Z"></path>
  <path fill="#97d729" d="M312.61 373.62a21.5 21.5 0 0 0-21.34-18.92h-6.89a91.82 91.82 0 0 1-86.18 28.81l-1.2 10.23.12.1c.89.75 1.8 1.48 2.72 2.19l.54.42c.85.65 1.71 1.28 2.58 1.9l.33.24c1 .67 1.94 1.33 2.93 2l.57.37c.92.58 1.85 1.16 2.8 1.71l.28.17c1 .6 2.07 1.17 3.11 1.73l.62.32c1 .51 2 1 3 1.49l.26.13c1.07.51 2.16 1 3.26 1.46l.68.28c1 .43 2.07.85 3.12 1.24l.24.09c1.12.42 2.25.8 3.38 1.18l.75.23c1.08.34 2.16.67 3.26 1l.21.06c1.16.31 2.32.6 3.49.87l.82.19q1.68.38 3.39.69h.18c1.19.22 2.38.4 3.59.57l.86.12c1.18.15 2.36.29 3.55.4h.11c1.22.11 2.45.19 3.68.25h.91c1.24.05 2.48.08 3.73.08 1.29 0 2.58 0 3.86-.08h.51c1.22-.06 2.43-.14 3.63-.25l.64-.06c1.2-.11 2.39-.24 3.57-.4l.54-.07c1.23-.17 2.45-.36 3.67-.58h.18c1.24-.22 2.47-.48 3.69-.75l.21-.05c1.21-.27 2.41-.58 3.61-.9l.42-.12c1.17-.32 2.33-.67 3.49-1l.39-.12c1.18-.39 2.35-.79 3.51-1.22l.13-.05c2.44-.91 4.82-1.92 7.16-3l.1-.05c1.15-.55 2.28-1.11 3.4-1.7l.18-.1c1.13-.59 2.24-1.21 3.34-1.86a94 94 0 0 0 9.73-6.55c1-.8 2-1.61 3-2.45Z"></path>
</svg>
