<svg id="SvgjsSvg1114" width="288" height="288" xmlns="http://www.w3.org/2000/svg" version="1.1" xmlns:xlink="http://www.w3.org/1999/xlink" xmlns:svgjs="http://svgjs.com/svgjs"><defs id="SvgjsDefs1115"></defs><g id="SvgjsG1116"><svg xmlns="http://www.w3.org/2000/svg" viewBox="0 0 512 512" width="288" height="288"><path fill="#68777f" d="M7.5 67.5v-30a30 30 0 0 1 30-30h437a30 30 0 0 1 30 30v30Z" class="svgShape color7a6d79-0 selectable"></path><path fill="#59666d" d="M474.5 7.5h-30a30 30 0 0 1 30 30v345a30 30 0 0 1-30 30h30a30 30 0 0 0 30-30v-22l-15-231.703 15-61.297v-30a30 30 0 0 0-30-30Z" class="svgShape color685e68-1 selectable"></path><path fill="#f7f8f9" d="m287.42 44.776-3.638-14.552A30 30 0 0 0 254.678 7.5h-75.73a30 30 0 0 0-29.103 22.724l-3.638 14.552A30 30 0 0 1 117.102 67.5H7.5v315a30 30 0 0 0 30 30h437a30 30 0 0 0 30-30v-315H316.524a30 30 0 0 1-29.104-22.724Z" class="svgShape colorf9f7f8-2 selectable"></path><path fill="#eceff0" d="M474.5 382.5a30 30 0 0 1-30 30h30a30 30 0 0 0 30-30v-315h-30Z" class="svgShape colorefedef-3 selectable"></path><path fill="#68777f" d="M37.5 412.5h437a30 30 0 0 0 30-30v-22H7.5v22a30 30 0 0 0 30 30Z" class="svgShape color7a6d79-4 selectable"></path><path fill="#59666d" d="M474.5 382.5a30 30 0 0 1-30 30h30a30 30 0 0 0 30-30v-22h-30Z" class="svgShape color685e68-5 selectable"></path><path fill="#bec6ca" d="M325.442 504.5H186.558a10 10 0 0 1-8.726-14.885l16.415-29.324A61.61 61.61 0 0 0 199.5 412.5h113a61.61 61.61 0 0 0 5.253 47.791l16.415 29.324a10 10 0 0 1-8.726 14.885Z" class="svgShape colorc9bfc8-6 selectable"></path><path fill="#adb7bc" d="m334.168 489.615-16.415-29.324A61.61 61.61 0 0 1 312.5 412.5h-30a61.61 61.61 0 0 0 5.253 47.791l16.415 29.324a10 10 0 0 1-8.726 14.885h30a10 10 0 0 0 8.726-14.885Z" class="svgShape colorbaafb9-7 selectable"></path><circle cx="37.5" cy="37.5" r="7.5" fill="#99a5ab" class="svgShape colorfd4755-8 selectable"></circle><circle cx="67.5" cy="37.5" r="7.5" fill="#73848d" class="svgShape colorfed402-9 selectable"></circle><circle cx="97.5" cy="37.5" r="7.5" fill="#4f5b61" class="svgShape color09a76d-10 selectable"></circle><path fill="#e0e4e6" d="M237.896 45h-43.231a7.5 7.5 0 0 1 0-15h43.231a7.5 7.5 0 0 1 0 15zm41.68 264.387a7.5 7.5 0 0 1-5.305-12.803l28.293-28.293a7.5 7.5 0 0 1 10.608 10.606l-28.293 28.293a7.48 7.48 0 0 1-5.304 2.197z" class="svgShape colore5e1e5-11 selectable"></path><path fill="#68777f" d="M228.773 315.5a27.227 27.227 0 0 1 54.454 0" class="svgShape color7a6d79-12 selectable"></path><path fill="#e0e4e6" d="M256 211.266a7.5 7.5 0 0 1-7.5-7.5v-18.757a7.5 7.5 0 0 1 15 0v18.757a7.5 7.5 0 0 1-7.5 7.5zm-57.657 15.004a7.496 7.496 0 0 1-6.502-3.752l-8.948-15.499a7.5 7.5 0 0 1 12.99-7.5l8.948 15.5a7.502 7.502 0 0 1-6.488 11.25zm-42.45 41.824a7.466 7.466 0 0 1-3.744-1.006l-14.157-8.173a7.5 7.5 0 1 1 7.5-12.99l14.157 8.173a7.501 7.501 0 0 1-3.756 13.996zm199.378 1.45a7.501 7.501 0 0 1-3.756-13.997l15.395-8.889a7.5 7.5 0 0 1 7.5 12.99l-15.395 8.89a7.463 7.463 0 0 1-3.744 1.005zm-41.838-42.438a7.502 7.502 0 0 1-6.489-11.251l9.378-16.244a7.5 7.5 0 1 1 12.99 7.5l-9.377 16.244a7.497 7.497 0 0 1-6.502 3.751z" class="svgShape colore5e1e5-13 selectable"></path><path fill="#68777f" d="M419.314 323H92.686a7.5 7.5 0 0 1 0-15h326.628a7.5 7.5 0 1 1 0 15Z" class="svgShape color7a6d79-14 selectable"></path><path fill="#e0e4e6" d="M181 166.296a7.5 7.5 0 0 1-7.135-5.188L166 136.833l-7.865 24.275a7.5 7.5 0 0 1-14.27 0l-15-46.296a7.5 7.5 0 0 1 14.27-4.623L151 134.463l7.865-24.275a7.5 7.5 0 0 1 14.27 0L181 134.463l7.865-24.275a7.5 7.5 0 0 1 14.27 4.623l-15 46.297a7.5 7.5 0 0 1-7.135 5.188zm90 0a7.5 7.5 0 0 1-7.135-5.188L256 136.833l-7.865 24.275a7.5 7.5 0 0 1-14.27 0l-15-46.296a7.5 7.5 0 0 1 14.27-4.623L241 134.463l7.865-24.275a7.5 7.5 0 0 1 14.27 0L271 134.463l7.865-24.275a7.5 7.5 0 1 1 14.27 4.623l-15 46.297a7.5 7.5 0 0 1-7.135 5.188zm90 0a7.5 7.5 0 0 1-7.135-5.188L346 136.833l-7.865 24.275a7.5 7.5 0 0 1-14.27 0l-15-46.296a7.5 7.5 0 0 1 14.27-4.623L331 134.463l7.865-24.275a7.5 7.5 0 0 1 14.27 0L361 134.463l7.865-24.275a7.5 7.5 0 1 1 14.27 4.623l-15 46.297a7.5 7.5 0 0 1-7.135 5.188z" class="svgShape colore5e1e5-15 selectable"></path><path fill="#68777f" d="M386.49 323a7.5 7.5 0 0 1-7.5-7.5 122.99 122.99 0 1 0-245.98 0 7.5 7.5 0 0 1-15 0c0-76.088 61.902-137.99 137.99-137.99s137.99 61.902 137.99 137.99a7.5 7.5 0 0 1-7.5 7.5Z" class="svgShape color7a6d79-16 selectable"></path></svg></g></svg>